PathFileType	4	(X/Y/Z)	C:\Users\°ÂÌØÂü\Desktop\20210112\bx_n_5_901-Unnamed.trc
DataRate	CameraRate	NumFrames	NumMarkers	Units	OrigDataRate	OrigDataStartFrame	OrigNumFrames
50.00	50.00	       5	0	mm	50.00	59	       470
Frame#	Time	
		

59	1.160	-239.95503	101.04638	1634.63745	-470.89261	279.75302	1418.13928	-689.22357	-0.29298	1027.80994				-678.57361	-2.49899	807.42712	-679.16382	227.73810	796.52460	-773.23517	282.63489	739.13385	-749.47955	76.76608	569.36853	-791.30200	258.17120	635.93860	-724.65497	210.58366	537.59253	-812.81116	264.44324	493.72714	-517.99829	-72.74001	143.22635	-548.60858	-22.94726	163.83630	-794.33514	36.11956	173.74567	-600.52545	28.33311	167.34038	-675.32758	52.10737	161.24651	-717.65070	157.11794	219.88606	-797.91687	181.17912	182.72890	-771.61151	230.28969	203.13548	-593.00104	218.33400	174.12517	-882.69244	296.27420	144.93039	-556.24695	253.80743	164.17897	-659.92291	298.64804	156.77196	-623.34491	306.60028	158.75252	-528.17261	304.07574	146.56660	-452.15021	-75.08506	1405.97974	-879.44666	99.13941	1087.18982	-801.23096	-44.87865	483.39182	-761.86981	-22.55375	205.61806	-690.90436	245.34671	1047.66931	-875.69330	-78.64300	141.12302	-763.75140	-66.34506	871.55042	-768.69543	-59.15007	754.46167	-767.82434	-32.70703	614.02362	-770.08649	-30.83328	567.66772	-675.97894	173.60701	160.47174	-648.43121	-68.21378	161.22998	-512.96124	102.35680	1220.87219	-605.72833	-72.49565	158.34229	-781.97400	294.19855	872.63000	-747.37915	148.85481	574.82483	-783.06610	253.02968	571.39679	-713.84100	17.99548	524.60419	-723.80719	67.47270	218.58229	
60	1.180	-227.06606	100.76914	1616.12646	-461.21277	279.27185	1404.22937	-694.91431	-0.11543	1025.72083				-683.97949	-2.59762	807.51019	-683.78204	227.30943	796.73022	-777.90558	282.27841	738.44208	-752.94556	76.29035	568.70874	-794.48212	258.55679	635.34338	-727.16351	210.76042	538.00464	-815.02960	264.70053	493.30066	-517.99829	-72.74001	143.22635	-548.85803	-23.16185	163.31311	-794.52551	35.79240	173.71320	-600.64539	28.31772	167.34404	-675.32758	52.10737	161.24651	-718.23065	157.38097	220.14809	-798.14502	181.54872	182.64897	-772.03784	230.74786	203.04404	-593.10254	218.11189	174.04272	-882.54669	296.20239	144.88261	-556.27484	253.78461	164.11394	-660.12250	298.69473	156.87047	-623.40875	306.67392	158.78110	-528.11462	304.16864	146.68283	-442.54776	-75.50125	1391.98328	-884.52838	99.29941	1088.48181	-804.00183	-44.99278	482.81821	-762.14569	-22.78970	205.49533	-695.81879	245.28873	1045.99194	-875.78961	-78.57214	141.09050	-770.05396	-66.05544	871.01605	-773.02734	-59.30369	754.35919	-771.55298	-32.75536	613.43500	-773.06714	-30.78843	566.87561	-676.31897	173.73059	160.77179	-648.25452	-68.28341	161.34299	-510.57455	101.66099	1207.95398	-605.51740	-72.78905	158.57974	-787.13013	295.01654	872.93646	-750.49426	149.15913	574.52765	-786.10620	253.23827	571.01770	-717.19427	17.98247	524.26825	-724.16022	66.98093	218.03160	
61	1.200	-214.94153	100.29034	1596.77881	-450.97476	278.35895	1388.95178	-700.55762	-1.28143	1023.75696				-689.17053	-2.91862	807.31580	-688.42566	227.01953	797.29858	-782.28210	282.25177	737.51422	-756.25360	76.09460	568.35901	-798.24329	258.64914	634.87817	-730.15985	210.70187	537.72589	-817.56256	265.44458	493.26001	-517.99829	-72.74001	143.22635	-548.77246	-22.82810	163.24425	-794.67499	35.93751	173.51523	-600.68958	28.30154	167.38898	-675.27374	51.90464	161.40681	-718.42181	157.35239	220.69508	-798.60925	181.99930	182.39279	-771.87091	230.87764	202.93147	-593.01129	217.95009	174.11462	-882.55133	296.23337	144.72253	-556.57581	253.41612	164.05653	-659.90753	298.48209	156.73941	-623.35693	306.67398	158.85327	-528.10645	304.16055	146.54327	-433.83151	-75.45433	1377.05786	-888.66125	99.02607	1089.32617	-806.70667	-45.32635	482.06412	-762.19391	-22.84119	205.35966	-700.65338	245.15492	1044.18616	-875.78961	-78.57214	141.09050	-775.96466	-66.58067	870.62476	-778.12354	-59.65797	753.87189	-775.48969	-32.87592	613.11853	-776.42126	-30.88697	566.58337	-676.49402	173.89629	161.21738	-648.38544	-68.33482	160.96054	-508.37347	100.72881	1194.56982	-605.37451	-72.99525	158.30794	-793.54340	293.66281	871.33069	-753.94641	149.17741	574.31281	-789.27484	253.48274	570.53302	-720.49695	18.04811	524.34857	-724.60242	66.75251	218.34317	
62	1.220	-203.64578	99.79305	1576.93188	-441.71136	277.58539	1373.31677	-705.90314	-1.13811	1020.78693				-694.52673	-3.45537	807.11340	-693.11401	226.58774	797.21960	-785.27460	283.21768	736.67621	-759.22308	76.16551	568.16113	-801.44537	259.12631	634.47632	-733.15930	210.42348	537.72980	-819.77777	265.94220	492.54022	-518.00000	-72.85060	143.37111	-548.79370	-22.48000	163.44005	-794.73816	35.79282	173.52335	-600.80823	28.22729	167.33690	-675.27374	51.90464	161.40681	-719.05267	157.30936	220.62119	-798.60443	182.12547	182.41014	-771.55780	231.19254	202.57727	-592.80078	217.63918	174.29494	-882.50977	296.18616	144.69009	-556.58716	253.09204	163.79622	-660.02075	298.65924	156.86566	-623.27240	306.36221	158.87453	-528.07172	304.05838	146.42812	-424.71036	-75.28363	1361.71838	-892.42572	98.94746	1090.35876	-809.32703	-45.18898	481.45456	-762.27643	-22.83172	205.29427	-704.98700	244.09727	1042.35522	-875.88104	-78.51685	141.06749	-781.85114	-66.88641	869.90216	-783.11676	-59.66660	753.15381	-779.26990	-33.05516	612.65936	-779.85223	-31.10594	566.21100	-676.46875	174.10040	161.51349	-648.45618	-68.32226	161.03265	-506.14224	99.77882	1180.93262	-605.17279	-73.21421	158.21071	-798.33966	293.58542	870.74738	-757.17139	149.29645	573.59070	-792.12726	253.27304	569.99976	-723.13129	17.70973	524.52728	-724.88715	66.76517	218.65196	
63	1.240	-193.24948	99.23641	1557.00916	-432.52597	276.85391	1357.51001							-699.67004	-3.46133	806.94476	-698.35675	226.78629	797.28528	-789.71069	283.36719	736.27545	-762.59998	75.89691	567.83020	-804.24860	258.38574	633.11902	-735.75488	210.22340	537.81244	-821.40112	265.94379	491.52191	-517.97626	-72.82216	143.31004	-548.98743	-22.52036	163.20880	-794.75214	35.59508	173.43245	-600.69720	27.99991	167.41641	-675.12994	51.81261	161.50060	-719.15283	157.37225	220.67818	-798.63629	182.37698	182.62573	-771.48645	231.32582	202.62408	-592.79022	217.46701	173.60515	-882.63232	296.15045	144.76273	-556.50671	252.98773	163.68759	-659.88379	298.41165	156.94005	-623.02228	306.24048	158.86047	-528.08484	304.08975	146.59084	-416.52582	-73.47259	1344.60840	-896.56256	99.40677	1091.29871	-811.85138	-45.99254	481.14948	-762.76398	-23.51031	205.27808	-710.66260	239.06274	1037.83594	-876.06232	-78.79330	141.34590	-787.27661	-67.57644	869.19098	-788.16266	-60.60785	752.57147	-782.50787	-33.20989	612.46198	-782.45941	-30.98016	565.80621	-676.59094	174.13817	161.36789	-648.53314	-68.45909	160.84142	-502.79721	99.69724	1166.76953	-605.31238	-73.14969	157.44292	-803.06262	293.52798	870.50305	-760.23608	148.75500	574.21521	-794.67798	253.36024	569.46558	-725.61017	17.41694	524.57007	-724.87976	66.58843	218.85622	
